squats_1_grf
version=1
nRows=12
nColumns=19
inDegrees=no
endheader
time	ground_force_right_vx	ground_force_right_vy	ground_force_right_vz	ground_force_right_px	ground_force_right_py	ground_force_right_pz	ground_force_right_mx	ground_force_right_my	ground_force_right_mz	ground_force_left_vx	ground_force_left_vy	ground_force_left_vz	ground_force_left_px	ground_force_left_py	ground_force_left_pz	ground_force_left_mx	ground_force_left_my	ground_force_left_mz
     20.57900000	    -29.35793640	    406.09814903	     38.28528760	     -3.47546621	      0.00727665	      2.30289214	      0.00467118	     -1.60256242	     -0.00725600	     15.97368139	    396.51368406	    -44.17404293	     -3.48010427	      0.00797433	      2.70402225	      0.01692622	     -5.09441382	      0.00884634
     20.58000000	    -29.33222480	    406.72712227	     38.41808391	     -3.47553758	      0.00727659	      2.30285900	      0.00466595	     -1.60076815	     -0.00724788	     16.05181214	    396.24085027	    -44.12513407	     -3.48018034	      0.00797410	      2.70403938	      0.01698531	     -5.11219934	      0.00887722
     20.58100000	    -29.30256776	    407.38573138	     38.56017138	     -3.47560994	      0.00727653	      2.30282522	      0.00466112	     -1.59911067	     -0.00724038	     16.12717909	    396.00190654	    -44.08129182	     -3.48025454	      0.00797389	      2.70405607	      0.01704567	     -5.13036557	      0.00890877
     20.58200000	    -29.26970508	    408.07462018	     38.71119485	     -3.47568323	      0.00727647	      2.30279089	      0.00465678	     -1.59762418	     -0.00723364	     16.19956822	    395.79870442	    -44.04265099	     -3.48032689	      0.00797367	      2.70407235	      0.01710721	     -5.14888687	      0.00894093
     20.58300000	    -29.23435858	    408.79424043	     38.87076146	     -3.47575739	      0.00727641	      2.30275613	      0.00465304	     -1.59633975	     -0.00722783	     16.26879161	    395.63281310	    -44.00930489	     -3.48039742	      0.00797347	      2.70408825	      0.01716983	     -5.16773508	      0.00897366
     20.58400000	    -29.19722412	    409.54484097	     39.03844281	     -3.47583235	      0.00727635	      2.30272100	      0.00464997	     -1.59528486	     -0.00722305	     16.33469090	    395.50550686	    -43.98130524	     -3.48046621	      0.00797326	      2.70410380	      0.01723344	     -5.18687986	      0.00900690
     20.58500000	    -29.15896420	    410.32645858	     39.21377723	     -3.47590803	      0.00727629	      2.30268561	      0.00464763	     -1.59448311	     -0.00721942	     16.39714088	    395.41775530	    -43.95866254	     -3.48053336	      0.00797307	      2.70411905	      0.01729793	     -5.20628899	      0.00904061
     20.58600000	    -29.12020116	    411.13891066	     39.39627227	     -3.47598436	      0.00727623	      2.30265005	      0.00464609	     -1.59395388	     -0.00721703	     16.45605307	    395.37021645	    -43.94134694	     -3.48059897	      0.00797288	      2.70413402	      0.01736318	     -5.22592878	      0.00907471
     20.58700000	    -29.08151115	    411.98178990	     39.58540726	     -3.47606126	      0.00727617	      2.30261440	      0.00464538	     -1.59371227	     -0.00721593	     16.51137933	    395.36323284	    -43.92928947	     -3.48066320	      0.00797269	      2.70414877	      0.01742908	     -5.24576437	      0.00910916
     20.58800000	    -29.04341885	    412.85446109	     39.78063600	     -3.47613865	      0.00727611	      2.30257874	      0.00464555	     -1.59376901	     -0.00721619	     16.56311528	    395.39683047	    -43.92238383	     -3.48072619	      0.00797250	      2.70416335	      0.01749552	     -5.26576004	      0.00914388
     20.58900000	    -29.00639319	    413.75606008	     39.98138956	     -3.47621645	      0.00727604	      2.30254316	      0.00464660	     -1.59413059	     -0.00721783	     16.61130362	    395.47072083	    -43.92048855	     -3.48078814	      0.00797232	      2.70417780	      0.01756237	     -5.28587955	      0.00917881
     20.59000000	    -28.97084398	    414.68549483	     40.18707913	     -3.47629457	      0.00727597	      2.30250772	      0.00464855	     -1.59479944	     -0.00722085	     16.65603708	    395.58430569	    -43.92342950	     -3.48084923	      0.00797215	      2.70419217	      0.01762950	     -5.30608640	      0.00921390
